<svg xmlns="http://www.w3.org/2000/svg" xmlns:xlink="http://www.w3.org/1999/xlink" width="100" height="100" viewBox="0 0 100 100"><circle stroke="none" fill="#E3E3E3" r="48%" cx="50%" cy="50%"></circle><g transform="translate(50 50) scale(0.69 0.69) rotate(0) translate(-50 -50)" style="fill:#B30000"><svg fill="#B30000" xmlns="http://www.w3.org/2000/svg" xmlns:xlink="http://www.w3.org/1999/xlink" xmlns:serif="http://www.serif.com/" viewBox="0 0 101 101" version="1.1" xml:space="preserve" style="" x="0px" y="0px" fill-rule="evenodd" clip-rule="evenodd" stroke-linejoin="round" stroke-miterlimit="2"><path serif:id="Page 97" d="M100.5,100.5l0,-100l-100,0l0,100l100,0Z" style="" fill="none"></path><path d="M43.718,52.933l-2.571,1.485l0.002,18.296l-0.005,0.075c-0.013,0.065 -0.013,0.083 -0.038,0.145c-0.005,0.011 -0.01,0.022 -0.016,0.033c-0.006,0.012 -0.012,0.024 -0.018,0.035c-0.025,0.043 -0.056,0.083 -0.091,0.119c-0.048,0.047 -0.064,0.054 -0.119,0.091l-6.207,3.584l-0.001,-0.001c-0.058,0.029 -0.073,0.039 -0.137,0.057c-0.096,0.025 -0.2,0.025 -0.296,0c-0.037,-0.01 -0.058,-0.018 -0.08,-0.028c-0.012,-0.006 -0.025,-0.012 -0.037,-0.018c-0.007,-0.004 -0.014,-0.007 -0.021,-0.011l-0.001,-0.001l-22.341,-12.896l-0.062,-0.042c-0.05,-0.044 -0.065,-0.053 -0.106,-0.106c-0.061,-0.079 -0.1,-0.175 -0.113,-0.274c-0.003,-0.025 -0.003,-0.05 -0.005,-0.075l0,-25.799l0,-0.006c0,-0.023 0.002,-0.045 0.005,-0.068l0,0l0,-0.001c0.001,-0.01 0.003,-0.019 0.004,-0.028c0.009,-0.047 0.024,-0.092 0.044,-0.135c0.007,-0.016 0.015,-0.032 0.024,-0.048c0.025,-0.043 0.055,-0.083 0.091,-0.119c0.029,-0.029 0.046,-0.043 0.069,-0.058c0.015,-0.011 0.031,-0.022 0.048,-0.032l0.001,-0.001l6.208,-3.584c0.059,-0.029 0.073,-0.04 0.138,-0.057c0.097,-0.026 0.2,-0.026 0.297,0c0.064,0.017 0.078,0.028 0.138,0.057l6.207,3.584c0.012,0.009 0.023,0.015 0.032,0.021l0.001,0.001c0.029,0.019 0.047,0.031 0.078,0.062c0.011,0.01 0.021,0.02 0.03,0.031c0.014,0.015 0.026,0.031 0.038,0.047c0.04,0.056 0.07,0.12 0.088,0.186c0.017,0.065 0.015,0.082 0.02,0.149l0,18.3l2.57,1.484c0,-3.49 0,-6.979 0,-10.467l0.002,-0.03c0,-0.005 0.001,-0.011 0.001,-0.016l0.002,-0.029c0.013,-0.065 0.013,-0.083 0.039,-0.145c0.038,-0.092 0.101,-0.174 0.18,-0.235c0.009,-0.007 0.019,-0.013 0.028,-0.019c0.011,-0.008 0.021,-0.014 0.032,-0.021l0.003,-0.002l22.342,-12.899l0.067,-0.033c0.063,-0.022 0.079,-0.03 0.145,-0.039c0.099,-0.013 0.201,0 0.294,0.039c0.023,0.009 0.045,0.022 0.067,0.033l6.208,3.584c0.055,0.037 0.071,0.043 0.118,0.091c0.071,0.071 0.123,0.16 0.148,0.257c0.018,0.064 0.016,0.082 0.02,0.148l-0.003,18.299l2.57,1.484c0,-3.49 0,-6.979 0,-10.467l0.002,-0.03c0,-0.005 0.001,-0.011 0.001,-0.016l0.002,-0.029c0.013,-0.065 0.013,-0.083 0.039,-0.145c0.038,-0.092 0.101,-0.174 0.18,-0.235c0.009,-0.007 0.019,-0.013 0.028,-0.019c0.011,-0.008 0.021,-0.014 0.032,-0.021l0.003,-0.002l22.342,-12.899l0.067,-0.033c0.063,-0.022 0.079,-0.03 0.145,-0.039c0.099,-0.013 0.202,0 0.294,0.039c0.023,0.009 0.045,0.022 0.067,0.033l6.208,3.584c0.055,0.037 0.071,0.043 0.118,0.091c0.071,0.071 0.123,0.16 0.149,0.257c0.017,0.064 0.015,0.082 0.019,0.148l0,7.168c-0.004,0.066 -0.002,0.083 -0.02,0.148c-0.017,0.065 -0.028,0.079 -0.057,0.138c-0.014,0.021 -0.028,0.042 -0.042,0.063c-0.043,0.05 -0.052,0.065 -0.105,0.105c-0.02,0.016 -0.042,0.028 -0.063,0.042l-15.848,9.15l0.001,11.128l0.001,0l0,7.168l-0.005,0.075c-0.013,0.065 -0.013,0.083 -0.038,0.145c-0.005,0.011 -0.01,0.022 -0.016,0.033c-0.006,0.012 -0.012,0.024 -0.018,0.035c-0.025,0.043 -0.056,0.083 -0.091,0.119c-0.048,0.047 -0.064,0.054 -0.119,0.091l-6.207,3.584l-0.001,-0.001c-0.058,0.029 -0.073,0.039 -0.137,0.057c-0.096,0.025 -0.2,0.025 -0.296,0c-0.037,-0.01 -0.058,-0.018 -0.079,-0.028c-0.013,-0.006 -0.026,-0.012 -0.038,-0.018c-0.007,-0.004 -0.014,-0.007 -0.021,-0.011l0,-0.001l-22.342,-12.896l-0.062,-0.042c-0.05,-0.044 -0.065,-0.053 -0.106,-0.106c-0.061,-0.079 -0.1,-0.175 -0.113,-0.274c-0.003,-0.025 -0.003,-0.05 -0.005,-0.075l0,-10.468Zm44.681,-14.336l-21.194,12.235l-0.002,24.474l5.063,-2.922l-0.002,-18.297l0.005,-0.075c0.013,-0.065 0.013,-0.082 0.038,-0.144c0.039,-0.093 0.102,-0.174 0.181,-0.235c0.02,-0.016 0.042,-0.028 0.062,-0.042l15.849,-9.15l0,-5.844Zm-32.266,17.637l0.003,-17.637l-21.194,12.235l-0.002,24.474l5.062,-2.922l-0.001,-18.297l0.005,-0.075c0.013,-0.065 0.013,-0.082 0.038,-0.144c0.039,-0.093 0.101,-0.174 0.181,-0.235c0.02,-0.016 0.041,-0.028 0.062,-0.042c0,0 8,-4.618 10.22,-5.901c0.117,-0.067 0.261,-0.067 0.378,0c0.116,0.068 0.188,0.192 0.188,0.327c0,0.334 0,0.67 0,0.67l0,0l0.002,10.802l8.775,5.066c0,-1.948 0,-3.897 0,-5.845l-3.431,-1.98l-0.062,-0.042c-0.05,-0.043 -0.065,-0.052 -0.106,-0.105c-0.061,-0.08 -0.1,-0.175 -0.114,-0.274c-0.003,-0.025 -0.003,-0.05 -0.004,-0.075Zm-11.269,-3.962l0,10.799c7.065,4.079 14.129,8.156 21.194,12.234l0.001,-24.471l-5.064,-2.923c0,2.059 0.001,13.816 0.001,17.636l-0.002,0c0.001,0.087 -0.018,0.174 -0.056,0.252c-0.023,0.047 -0.055,0.089 -0.087,0.13c-0.05,0.048 -0.06,0.064 -0.119,0.101c-0.132,0.085 -0.299,0.111 -0.451,0.073c-0.068,-0.018 -0.082,-0.029 -0.144,-0.059l-9.922,-5.728c-0.055,-0.037 -0.071,-0.044 -0.118,-0.091c-0.071,-0.071 -0.123,-0.16 -0.149,-0.257c-0.017,-0.065 -0.015,-0.082 -0.019,-0.148l-0.002,-10.471l-5.063,2.923Zm-11.07,23.033l0.002,-24.471l-5.064,-2.923c0,2.059 0.001,13.816 0.001,17.636l-0.002,0c0.001,0.087 -0.018,0.174 -0.056,0.252c-0.023,0.047 -0.055,0.089 -0.087,0.13c-0.05,0.048 -0.06,0.064 -0.119,0.101c-0.132,0.085 -0.299,0.111 -0.451,0.073c-0.068,-0.018 -0.082,-0.029 -0.144,-0.059l-9.922,-5.728c-0.055,-0.037 -0.071,-0.044 -0.118,-0.091c-0.071,-0.071 -0.123,-0.16 -0.149,-0.257c-0.017,-0.065 -0.015,-0.082 -0.019,-0.148l-0.003,-18.303l-5.062,-2.922l0,24.476c7.065,4.079 14.129,8.156 21.193,12.234Zm55.751,-19.074l0,0.002l-0.001,7.169c-0.004,0.066 -0.002,0.083 -0.02,0.148c-0.017,0.064 -0.027,0.078 -0.057,0.138c-0.014,0.021 -0.028,0.042 -0.042,0.062c-0.016,0.019 -0.031,0.039 -0.049,0.057c-0.047,0.047 -0.063,0.054 -0.119,0.091l-6.141,3.545c-0.151,0.114 -0.36,0.149 -0.539,0.085c-0.032,-0.011 -0.062,-0.025 -0.092,-0.042c-0.002,-0.002 -0.005,-0.003 -0.008,-0.005l-6.207,-3.584c-0.056,-0.037 -0.072,-0.043 -0.119,-0.091c-0.071,-0.07 -0.122,-0.16 -0.148,-0.257c-0.018,-0.064 -0.015,-0.082 -0.02,-0.148l0,-7.116c-0.008,-0.101 0.009,-0.204 0.054,-0.296c0.006,-0.012 0.013,-0.025 0.02,-0.036c0.025,-0.046 0.057,-0.088 0.094,-0.125c0.047,-0.047 0.063,-0.054 0.119,-0.091l6.207,-3.584c0.059,-0.029 0.073,-0.04 0.138,-0.057c0.097,-0.026 0.2,-0.026 0.297,0c0.064,0.017 0.078,0.028 0.138,0.057l6.208,3.584c0.055,0.037 0.072,0.044 0.119,0.091c0.071,0.071 0.122,0.16 0.148,0.257c0.013,0.049 0.015,0.071 0.017,0.107c0.001,0.009 0.002,0.018 0.002,0.026c0,0.004 0,0.009 0.001,0.013Zm-7.359,3.925l-5.057,-2.92l0,5.834l5.065,2.925l-0.008,-5.839Zm6.213,-2.92l-5.067,2.92l0.008,5.835l5.058,-2.92l0.001,-5.835Zm-60.812,7.319c0,-1.948 0,-3.897 0,-5.845l-3.431,-1.98l-0.062,-0.042c-0.05,-0.043 -0.065,-0.052 -0.106,-0.105c-0.061,-0.08 -0.1,-0.175 -0.114,-0.274c-0.003,-0.025 -0.003,-0.05 -0.004,-0.075l0,-17.639l-5.061,2.922l0.003,17.972l8.775,5.066Zm55.176,-11.244l-5.07,2.928l5.066,2.925l5.075,-2.926l-5.071,-2.927Zm5.064,-15.707l-5.062,-2.922l-21.196,12.237l5.061,2.921l21.197,-12.236Zm-32.263,0l-5.062,-2.922l-21.196,12.237l5.06,2.921l21.198,-12.236Zm-37.329,-2.924l-5.061,2.922l5.061,2.923l5.062,-2.922l-5.062,-2.923Zm41.696,-6.672c0.025,-0.047 0.058,-0.09 0.095,-0.127c0.047,-0.048 0.064,-0.055 0.119,-0.092l6.207,-3.583c0.06,-0.03 0.074,-0.04 0.138,-0.058c0.097,-0.025 0.2,-0.025 0.297,0c0.064,0.018 0.079,0.028 0.138,0.058l6.208,3.583c0.056,0.037 0.072,0.044 0.119,0.091c0.071,0.071 0.123,0.16 0.149,0.257c0.017,0.065 0.015,0.082 0.019,0.149l-0.001,7.168c-0.004,0.066 -0.002,0.084 -0.019,0.148c-0.018,0.065 -0.028,0.079 -0.058,0.138c-0.013,0.021 -0.027,0.042 -0.041,0.063c-0.017,0.018 -0.032,0.038 -0.05,0.056c-0.047,0.047 -0.063,0.054 -0.118,0.091l-6.207,3.584c-0.06,0.029 -0.074,0.04 -0.139,0.057c-0.096,0.026 -0.2,0.026 -0.296,0c-0.065,-0.017 -0.079,-0.028 -0.138,-0.057l-6.208,-3.584c-0.055,-0.037 -0.071,-0.044 -0.119,-0.091c-0.07,-0.071 -0.122,-0.16 -0.148,-0.257c-0.017,-0.065 -0.015,-0.082 -0.019,-0.148l-0.001,-7.168c0.005,-0.067 0.003,-0.084 0.02,-0.149c0.007,-0.027 0.017,-0.054 0.028,-0.08c0.003,-0.008 0.007,-0.016 0.011,-0.023c0.004,-0.009 0.009,-0.018 0.014,-0.026Zm-32.264,0c0.026,-0.047 0.059,-0.09 0.096,-0.127c0.047,-0.048 0.064,-0.055 0.119,-0.092l6.207,-3.583c0.06,-0.03 0.074,-0.04 0.138,-0.058c0.097,-0.025 0.2,-0.025 0.297,0c0.064,0.018 0.078,0.028 0.138,0.058l6.208,3.583c0.056,0.037 0.072,0.044 0.119,0.091c0.071,0.071 0.123,0.16 0.148,0.257c0.018,0.065 0.016,0.082 0.02,0.149l-0.001,7.168c-0.004,0.066 -0.002,0.084 -0.019,0.148c-0.018,0.065 -0.028,0.079 -0.058,0.138c-0.013,0.021 -0.027,0.042 -0.041,0.063c-0.017,0.018 -0.032,0.038 -0.05,0.056c-0.047,0.047 -0.063,0.054 -0.118,0.091l-6.208,3.584c-0.059,0.029 -0.073,0.04 -0.138,0.057c-0.096,0.026 -0.2,0.026 -0.296,0c-0.065,-0.017 -0.079,-0.028 -0.139,-0.057l-6.207,-3.584c-0.055,-0.037 -0.071,-0.044 -0.119,-0.091c-0.07,-0.071 -0.122,-0.16 -0.148,-0.257c-0.017,-0.065 -0.015,-0.082 -0.019,-0.148l-0.001,-7.168c0.005,-0.067 0.003,-0.084 0.02,-0.149c0.007,-0.027 0.017,-0.054 0.028,-0.08c0.003,-0.008 0.007,-0.016 0.011,-0.023c0.004,-0.009 0.009,-0.018 0.013,-0.026Zm38.408,10.042l-0.009,-5.849l-5.062,-2.923l0.001,5.845l5.07,2.927Zm-32.264,0l-0.008,-5.849l-5.062,-2.923l0.001,5.845l5.069,2.927Zm38.463,-8.763l-5.062,2.914l0.008,5.839l5.053,-2.917l0.001,-5.836Zm-32.263,0l-5.062,2.914l0.008,5.839l5.053,-2.917l0.001,-5.836Zm26.628,-3.923l-5.062,2.922l5.062,2.922l5.07,-2.918l-5.07,-2.926Zm-32.263,0l-5.062,2.922l5.062,2.922l5.07,-2.918l-5.07,-2.926Z"></path></svg></g></svg>